<?xml version="1.0" encoding="utf-8"?>
<!-- Generator: Adobe Illustrator 21.1.0, SVG Export Plug-In . SVG Version: 6.00 Build 0)  -->
<svg version="1.1" id="Layer_1" xmlns="http://www.w3.org/2000/svg" xmlns:xlink="http://www.w3.org/1999/xlink" x="0px" y="0px"
	 viewBox="0 0 90 112.5" style="enable-background:new 0 0 90 112.5;" xml:space="preserve">
<style type="text/css">
	.st0{fill:#FFFFFF;}
</style>
<g>
	<g>
		<path class="st0" d="M46.1,53.8c-4.9,0-8.8-4-8.8-8.8s4-8.8,8.8-8.8s8.8,4,8.8,8.8S50.9,53.8,46.1,53.8z M46.1,40.2
			c-2.7,0-4.8,2.2-4.8,4.8s2.2,4.8,4.8,4.8s4.8-2.2,4.8-4.8S48.7,40.2,46.1,40.2z"/>
	</g>
	<g>
		<path class="st0" d="M46.1,83.4C24.9,83.4,7.7,66.2,7.7,45S24.9,6.6,46.1,6.6c4.6,0,9.2,0.8,13.5,2.4l2.3,0.8L60.5,12
			c-1.1,1.8-1.6,3.8-1.6,5.8c0,6.2,5.1,11.3,11.3,11.3c2.5,0,4.9-0.8,6.9-2.4l1.9-1.5l1.1,2.1c2.8,5.4,4.3,11.5,4.3,17.6
			C84.4,66.2,67.2,83.4,46.1,83.4z M46.1,10.6C27.2,10.6,11.7,26,11.7,45s15.4,34.4,34.4,34.4C65,79.4,80.4,63.9,80.4,45
			c0-4.8-1-9.4-2.9-13.8c-2.2,1.2-4.7,1.9-7.3,1.9c-8.4,0-15.3-6.9-15.3-15.3c0-2,0.4-3.9,1.1-5.7C52.8,11.1,49.5,10.6,46.1,10.6z"
			/>
	</g>
</g>
</svg>
