<?xml version="1.0" encoding="utf-8"?>
<!-- Generator: Adobe Illustrator 21.1.0, SVG Export Plug-In . SVG Version: 6.00 Build 0)  -->
<svg version="1.1" id="Layer_1" xmlns="http://www.w3.org/2000/svg" xmlns:xlink="http://www.w3.org/1999/xlink" x="0px" y="0px"
	 viewBox="0 0 612 792" style="enable-background:new 0 0 612 792;" xml:space="preserve">
<style type="text/css">
	.st0{fill:#C7D1D1;}
	.st1{fill:#465353;}
	.st2{fill:#F1F3F3;}
</style>
<path id="path-3_2_" class="st0" d="M276.6,247.5l-0.9,3.1l57.8,106.9l58.5-60l-58.5-111.3c-5.6-10.6-19.1-11.7-24.6-1.1
	L276.6,247.5"/>
<path class="st0" d="M90.8,604.7l77.8-497.8c0,0,1.5-12.6,14.5-12.6c10.6,0,15,14.3,14.3,12.8c0.6,1.1,77.6,144.5,77.6,144.5
	L90.8,604.7z"/>
<g>
	<polygon class="st1" points="88,606.5 89.9,604.9 96.2,602.3 330.9,368.5 333.8,357.5 275.3,250.6 	"/>
	<path class="st2" d="M546.5,606l-60.2-370.9c-1.9-11.7-13.9-16.5-22-8.2L88,606.7l205.1,116.7c13.2,7.4,29.5,7.4,42.6,0L546.5,606z
		"/>
</g>
</svg>
