<?xml version="1.0" encoding="utf-8"?>
<!-- Generator: Adobe Illustrator 21.1.0, SVG Export Plug-In . SVG Version: 6.00 Build 0)  -->
<svg version="1.1" id="Layer_1" xmlns="http://www.w3.org/2000/svg" xmlns:xlink="http://www.w3.org/1999/xlink" x="0px" y="0px"
	 viewBox="0 0 100 141" style="enable-background:new 0 0 100 141;" xml:space="preserve">
<style type="text/css">
	.st0{fill:#EDEEF0;}
	.st1{fill:#F2FEFF;}
	.st2{fill:#FEF4F8;}
	.st3{fill:#FBFAFD;}
</style>
<polygon class="st0" points="61.1,35.6 70.3,51.2 88.5,51.4 79.4,35.7 "/>
<polygon class="st0" points="30.8,18 40,33.7 58.2,33.9 49.1,18.2 "/>
<polygon class="st0" points="30.7,88.3 39.9,103.9 58.1,104.1 48.9,88.4 "/>
<polygon class="st0" points="31.7,123.1 40.9,138.8 59.1,138.9 49.9,123.2 "/>
<polygon class="st0" points="1,70.5 10.2,86.2 28.4,86.3 19.3,70.6 "/>
<polygon class="st0" points="1,105.8 10.2,121.5 28.4,121.6 19.3,106 "/>
<polygon class="st0" points="29.9,54.1 20.7,69.6 29.7,85.5 38.7,69.7 "/>
<polygon class="st0" points="29.9,89.4 20.7,104.9 29.7,120.8 38.7,105 "/>
<polygon class="st1" points="1,68.8 19.1,68.8 28.5,53.2 10.3,53.2 "/>
<polygon class="st1" points="1,104.2 19.1,104.2 28.5,88.5 10.3,88.5 "/>
<polygon class="st2" points="90,19.2 80.8,34.7 89.8,50.5 98.8,34.8 "/>
<polygon class="st2" points="59.7,1.6 50.5,17.2 59.5,33 68.5,17.2 "/>
<polygon class="st2" points="59.9,36.5 50.8,52 59.8,67.9 68.8,52.1 "/>
<polygon class="st2" points="59.6,71.9 50.4,87.4 59.4,103.2 68.4,87.5 "/>
<polygon class="st2" points="60.6,106.7 51.4,122.2 60.4,138.1 69.4,122.3 "/>
<polygon class="st3" points="61.1,33.9 79.2,33.9 88.6,18.2 70.4,18.2 "/>
<polygon class="st3" points="30.8,16.4 49,16.4 58.3,0.7 40.1,0.7 "/>
<polygon class="st3" points="31.1,51.3 49.2,51.3 58.6,35.6 40.4,35.6 "/>
<polygon class="st3" points="30.7,86.6 48.8,86.6 58.2,70.9 40,70.9 "/>
<polygon class="st3" points="31.7,121.4 49.8,121.4 59.2,105.8 41,105.8 "/>
</svg>
