<?xml version="1.0" encoding="utf-8"?>
<!-- Generator: Adobe Illustrator 21.1.0, SVG Export Plug-In . SVG Version: 6.00 Build 0)  -->
<svg version="1.1" id="Layer_1" xmlns="http://www.w3.org/2000/svg" xmlns:xlink="http://www.w3.org/1999/xlink" x="0px" y="0px"
	 viewBox="0 0 102 142" style="enable-background:new 0 0 102 142;" xml:space="preserve">
<style type="text/css">
	.st0{fill:#F4EBEF;}
	.st1{fill:#ECF0F2;}
	.st2{fill:#F0F1F2;}
	.st3{fill:#E3ECEE;}
	.st4{fill:#F5FEFE;}
	.st5{fill:#FEF6FA;}
	.st6{fill:#FBFBFD;}
</style>
<polygon class="st0" points="32.2,35 50.3,35 59.7,19.3 41.5,19.3 "/>
<polygon class="st0" points="32,69.8 50.2,69.8 59.5,54.2 41.4,54.2 "/>
<polygon class="st0" points="32,104.2 50.2,104.2 59.5,88.5 41.4,88.5 "/>
<polygon class="st0" points="2.5,122.4 20.7,122.4 30,106.7 11.8,106.7 "/>
<polygon class="st1" points="61.1,20.2 51.9,35.7 60.9,51.6 69.9,35.8 "/>
<polygon class="st1" points="60.9,55.1 51.8,70.6 60.8,86.5 69.8,70.7 "/>
<polygon class="st1" points="60.9,89.4 51.8,104.9 60.8,120.8 69.8,105 "/>
<polygon class="st2" points="91.1,72.9 82,88.4 91,104.2 100,88.5 "/>
<polygon class="st3" points="62.6,52.3 80.8,52.3 90.1,36.6 72,36.6 "/>
<polygon class="st3" points="62.2,87.6 80.4,87.6 89.7,71.9 71.6,71.9 "/>
<polygon class="st4" points="62.4,19 71.6,34.7 89.8,34.9 80.6,19.2 "/>
<polygon class="st4" points="62.3,89.3 71.5,104.9 89.7,105.1 80.5,89.4 "/>
<polygon class="st5" points="32.1,1.3 41.3,17 59.5,17.1 50.3,1.4 "/>
<polygon class="st5" points="32.2,36.6 41.4,52.3 59.6,52.4 50.4,36.8 "/>
<polygon class="st5" points="32.1,71.5 41.3,87.2 59.5,87.3 50.3,71.6 "/>
<polygon class="st5" points="32.1,105.8 41.3,121.5 59.5,121.6 50.3,106 "/>
<polygon class="st5" points="2.5,124 11.7,139.7 29.9,139.8 20.8,124.2 "/>
<polygon class="st6" points="30.5,2.6 21.4,18.1 30.3,34 39.3,18.2 "/>
<polygon class="st6" points="31.4,107.6 22.2,123.1 31.2,139 40.2,123.2 "/>
</svg>
